<?xml version="1.0" encoding="UTF-8" standalone="no"?>
<!-- Created with Inkscape (http://www.inkscape.org/) -->

<svg
   width="200mm"
   height="200mm"
   viewBox="0 0 200 200"
   version="1.1"
   id="svg5"
   inkscape:version="1.2.2 (b0a8486541, 2022-12-01)"
   inkscape:export-filename="favicon.png"
   inkscape:export-xdpi="96"
   inkscape:export-ydpi="96"
   sodipodi:docname="favicon.svg"
   xmlns:inkscape="http://www.inkscape.org/namespaces/inkscape"
   xmlns:sodipodi="http://sodipodi.sourceforge.net/DTD/sodipodi-0.dtd"
   xmlns="http://www.w3.org/2000/svg"
   xmlns:svg="http://www.w3.org/2000/svg">
  <sodipodi:namedview
     id="namedview7"
     pagecolor="#505050"
     bordercolor="#eeeeee"
     borderopacity="1"
     inkscape:pageshadow="0"
     inkscape:pageopacity="0"
     inkscape:pagecheckerboard="0"
     inkscape:document-units="mm"
     showgrid="false"
     inkscape:showpageshadow="0"
     inkscape:deskcolor="#505050"
     inkscape:zoom="0.71966317"
     inkscape:cx="284.85548"
     inkscape:cy="480.08571"
     inkscape:window-width="1882"
     inkscape:window-height="1016"
     inkscape:window-x="0"
     inkscape:window-y="0"
     inkscape:window-maximized="1"
     inkscape:current-layer="layer1"
     showguides="false" />
  <defs
     id="defs2" />
  <g
     inkscape:label="Layer 1"
     inkscape:groupmode="layer"
     id="layer1">
    <g
       id="g558"
       transform="matrix(1.0918858,0,0,1.090842,-9.1834277,-9.0863451)"
       style="stroke-width:0.916285">
      <path
         id="path510"
         style="color:#000000;display:inline;fill:#edb120;stroke-width:0.916285;stroke-linecap:round;stroke-linejoin:round;-inkscape-stroke:none;paint-order:markers stroke fill"
         d="m 130.27344,40.425781 c -6.27339,0.145298 -12.54653,1.226417 -18.46513,3.314335 -1.22404,0.805694 -0.85566,2.854602 0.44924,3.381225 1.6163,1.255243 3.0339,2.758458 4.64089,4.013425 1.39439,0.48116 2.7357,-0.418483 4.11251,-0.543517 10.9689,-2.306488 22.78391,-0.930456 32.93843,4.048578 10.83978,5.235618 19.70847,14.447733 24.42852,25.531636 3.53956,8.173079 4.76496,17.223712 3.69241,26.010177 -0.87677,7.31425 -3.46959,14.56929 -7.50049,20.82514 -6.01494,9.48259 -15.23186,16.79394 -25.82248,20.53322 -13.9879,5.01939 -30.08188,3.58711 -42.8932,-3.92061 -9.886222,-5.70125 -17.728397,-14.80289 -21.844646,-25.47557 -4.822006,-12.36275 -4.447593,-26.4955 0.95554,-38.574184 1.401026,-3.124893 3.086456,-6.059904 5.045902,-8.79079 0.726278,-1.092056 1.636951,-2.062216 2.35686,-3.147622 0.505033,-1.283638 -0.651723,-2.441579 -1.750852,-2.897146 -1.519523,-0.85612 -3.001365,-1.893513 -4.698975,-2.343453 -1.538568,0.09803 -2.147626,1.712746 -3.025971,2.725108 -7.387886,10.038693 -11.419561,22.474645 -11.406691,34.932667 0.0084,1.67254 0.08988,3.35399 0.222184,5.02579 1.1817,14.16318 7.710938,27.78426 17.966815,37.61761 10.378584,10.04695 24.462454,16.19866 38.907414,16.82348 13.74702,0.68757 27.70792,-3.45401 38.75306,-11.69253 11.78898,-8.68934 20.29305,-21.80677 23.10696,-36.20657 2.84781,-14.187408 0.31048,-29.408359 -7.1492,-41.826343 -8.15985,-13.769766 -22.0267,-24.047329 -37.62303,-27.706179 -5.03429,-1.205628 -10.22119,-1.754342 -15.39607,-1.657877 z" />
      <path
         id="path508"
         style="color:#000000;display:inline;fill:#edb120;stroke-width:0.916285;stroke-linecap:round;stroke-linejoin:round;-inkscape-stroke:none;paint-order:markers stroke fill"
         d="M 66.931641,40.431641 C 51.368878,40.754941 36.052383,47.442637 25.246673,58.649933 15.513608,68.641776 9.3917857,82.127359 8.5411426,96.071613 7.6355897,109.52226 11.464375,123.25487 19.321168,134.22396 c 8.911542,12.61635 22.84596,21.59449 38.060343,24.34403 10.246186,1.88754 21.008784,1.14946 30.841424,-2.31983 1.203594,-0.78293 0.87356,-2.78607 -0.392765,-3.33413 -1.644973,-1.27219 -3.088534,-2.79868 -4.728608,-4.06442 -1.390899,-0.45872 -2.724936,0.43041 -4.096964,0.55485 -11.124249,2.33936 -22.999635,0.89955 -33.220967,-4.17378 -9.431971,-4.60647 -17.365639,-12.30575 -22.303162,-21.51584 -2.311435,-4.31855 -4.010528,-9.07424 -4.959655,-13.87398 -2.246996,-11.202298 -0.562907,-23.115086 4.781663,-33.20649 4.049881,-7.685478 10.115136,-14.312164 17.378448,-18.973021 7.832152,-5.0865 17.028577,-7.875489 26.25531,-8.134471 8.949285,-0.286954 18.020591,1.847566 25.852576,6.092419 8.413749,4.514884 15.518489,11.49264 20.200359,19.869664 4.25725,7.526712 6.45474,16.294683 6.37448,24.936809 -0.0407,11.39468 -4.20016,22.79958 -11.5073,31.59002 -0.83586,1.09717 0.0268,2.62602 1.18565,3.05879 1.58556,0.93183 3.14561,1.99033 4.91112,2.54065 1.49693,0.0462 2.15434,-1.49568 2.96959,-2.472 9.01868,-12.0966 13.08096,-27.74751 11.10261,-42.704573 C 126.27598,78.635638 119.44638,65.56415 109.1543,56.207031 98.793985,46.708256 85.033681,40.967987 70.971468,40.474985 c -1.345403,-0.06392 -2.693327,-0.0596 -4.039827,-0.04334 z" />
    </g>
  </g>
</svg>
