<?xml version="1.0" encoding="UTF-8" standalone="no"?>
<!-- Created with Inkscape (http://www.inkscape.org/) -->

<svg
   width="200mm"
   height="200mm"
   viewBox="0 0 200 200"
   version="1.1"
   id="svg5"
   inkscape:version="1.2.2 (b0a8486541, 2022-12-01)"
   inkscape:export-filename="favicon.png"
   inkscape:export-xdpi="96"
   inkscape:export-ydpi="96"
   sodipodi:docname="favicon.svg"
   xmlns:inkscape="http://www.inkscape.org/namespaces/inkscape"
   xmlns:sodipodi="http://sodipodi.sourceforge.net/DTD/sodipodi-0.dtd"
   xmlns="http://www.w3.org/2000/svg"
   xmlns:svg="http://www.w3.org/2000/svg">
  <sodipodi:namedview
     id="namedview7"
     pagecolor="#505050"
     bordercolor="#eeeeee"
     borderopacity="1"
     inkscape:pageshadow="0"
     inkscape:pageopacity="0"
     inkscape:pagecheckerboard="0"
     inkscape:document-units="mm"
     showgrid="false"
     inkscape:showpageshadow="0"
     inkscape:deskcolor="#505050"
     inkscape:zoom="0.81269998"
     inkscape:cx="191.95276"
     inkscape:cy="319.30603"
     inkscape:window-width="1882"
     inkscape:window-height="1016"
     inkscape:window-x="0"
     inkscape:window-y="0"
     inkscape:window-maximized="1"
     inkscape:current-layer="layer1" />
  <defs
     id="defs2" />
  <g
     inkscape:label="Layer 1"
     inkscape:groupmode="layer"
     id="layer1">
    <path
       id="circle345"
       style="color:#000000;fill:#edb120;stroke-width:1;stroke-linecap:round;stroke-linejoin:round;-inkscape-stroke:none;paint-order:markers stroke fill"
       d="m 96.45871,61.384299 c -0.0538,-0.0385 -0.10624,-0.0788 -0.16018,-0.11706 -0.31372,-0.22273 -0.63021,-0.44155 -0.9495,-0.65687 -0.31929,-0.21531 -0.64093,-0.42754 -0.96566,-0.63531 -0.32474,-0.20776 -0.65256,-0.41134 -0.98262,-0.61143 -0.33005,-0.20009 -0.66275,-0.39604 -0.99801,-0.58834 -0.33525,-0.19229 -0.67308,-0.38085 -1.01341,-0.56523 -0.0476,-0.0258 -0.0963,-0.0498 -0.144,-0.0755 -11.18354,10.65266 -18.15981,25.68358 -18.15981,42.323101 0,16.63991 6.97658,31.6704 18.16058,42.3231 0.0475,-0.0255 0.0958,-0.0498 0.14324,-0.0754 0.34033,-0.18438 0.67816,-0.37293 1.01341,-0.56524 0.33526,-0.19229 0.66796,-0.38824 0.99802,-0.58832 0.33005,-0.2001 0.65787,-0.40445 0.98261,-0.61221 0.32473,-0.20776 0.64638,-0.41923 0.96566,-0.63455 0.31929,-0.2153 0.63578,-0.43413 0.9495,-0.65687 0.054,-0.0383 0.1064,-0.0785 0.16018,-0.11698 -10.69303,-9.60503 -17.41285,-23.54229 -17.41285,-39.07341 0,-15.531111 6.71982,-29.468371 17.41285,-39.073401 z" />
    <path
       id="path1020"
       style="color:#000000;fill:#edb120;stroke-width:1;stroke-linecap:round;stroke-linejoin:round;-inkscape-stroke:none;paint-order:markers stroke fill"
       d="m 104.26723,152.15487 c 8.14641,4.31267 17.42797,6.76047 27.27514,6.76047 32.2501,0 58.45763,-26.20755 58.45763,-58.45764 0,-32.250101 -26.20753,-58.457633 -58.45763,-58.457633 -9.84743,0 -19.12936,2.446825 -27.27591,6.759683 0.19397,0.134861 0.38978,0.26732 0.58217,0.404289 0.41139,0.292879 0.81886,0.590084 1.22287,0.892511 0.40401,0.302428 0.80408,0.609967 1.20054,0.921775 0.39647,0.311809 0.78946,0.628475 1.17821,0.949498 0.3469,0.286457 0.68973,0.577282 1.03036,0.87095 6.70522,-3.103751 14.17727,-4.838356 22.06176,-4.838356 29.02869,0 52.49729,23.468582 52.49729,52.497283 0,29.0287 -23.4686,52.49651 -52.49729,52.49651 -7.88477,0 -15.35711,-1.73438 -22.06254,-4.83836 -0.34049,0.29355 -0.68283,0.58539 -1.02958,0.87172 -0.38875,0.32103 -0.78174,0.63692 -1.17821,0.94874 -0.39646,0.31181 -0.79653,0.61935 -1.20054,0.92177 -0.40401,0.30243 -0.81148,0.6004 -1.22287,0.89328 -0.1921,0.1368 -0.38772,0.26886 -0.5814,0.40351 z" />
    <path
       style="color:#000000;fill:#edb120;stroke-width:1;stroke-linecap:round;stroke-linejoin:round;-inkscape-stroke:none;paint-order:markers stroke fill"
       d="M 68.45749,42 C 36.207356,42 10,68.207359 10,100.45749 c 0,32.25012 26.207356,58.45749 58.45749,58.45749 32.25013,0 58.46039,-26.20737 58.46039,-58.45749 C 126.91788,68.207359 100.70762,42 68.45749,42 Z m 0,5.960714 c 29.02872,0 52.49968,23.468045 52.49968,52.496776 0,29.02873 -23.47096,52.49677 -52.49968,52.49677 -29.028729,0 -52.496776,-23.46804 -52.496776,-52.49677 0,-29.028731 23.468047,-52.496776 52.496776,-52.496776 z"
       id="circle343" />
  </g>
</svg>
